<?xml version="1.0" standalone="no"?>
<!DOCTYPE svg PUBLIC "-//W3C//DTD SVG 20010904//EN"
 "http://www.w3.org/TR/2001/REC-SVG-20010904/DTD/svg10.dtd">
<svg version="1.0" xmlns="http://www.w3.org/2000/svg"
 width="300.000000pt" height="411.000000pt" viewBox="0 0 300.000000 411.000000"
 preserveAspectRatio="xMidYMid meet">
<metadata>
Created by potrace 1.10, written by Peter Selinger 2001-2011
</metadata>
<g transform="translate(0.000000,411.000000) scale(0.100000,-0.100000)"
fill="#000000" stroke="none">
<path d="M230 4040 l0 -69 -62 -4 -63 -3 68 -2 67 -2 0 75 c0 41 -2 75 -5 75
-3 0 -5 -31 -5 -70z"/>
<path d="M803 4035 c0 -44 2 -61 4 -37 2 23 2 59 0 80 -2 20 -4 1 -4 -43z"/>
<path d="M1653 4035 c0 -44 2 -61 4 -37 2 23 2 59 0 80 -2 20 -4 1 -4 -43z"/>
<path d="M2223 4050 c0 -36 2 -50 4 -32 2 17 2 47 0 65 -2 17 -4 3 -4 -33z"/>
<path d="M1083 4025 c0 -38 2 -53 4 -32 2 20 2 52 0 70 -2 17 -4 1 -4 -38z"/>
<path d="M1513 4035 c0 -33 2 -45 4 -27 2 18 2 45 0 60 -2 15 -4 0 -4 -33z"/>
<path d="M2650 4030 l0 -59 -62 -4 -63 -3 68 -2 67 -2 0 65 c0 36 -2 65 -5 65
-3 0 -5 -27 -5 -60z"/>
<path d="M2793 4025 c0 -38 2 -53 4 -32 2 20 2 52 0 70 -2 17 -4 1 -4 -38z"/>
<path d="M1558 3963 c18 -2 45 -2 60 0 15 2 0 4 -33 4 -33 0 -45 -2 -27 -4z"/>
<path d="M2128 3963 c18 -2 45 -2 60 0 15 2 0 4 -33 4 -33 0 -45 -2 -27 -4z"/>
<path d="M2278 3963 c17 -2 47 -2 65 0 17 2 3 4 -33 4 -36 0 -50 -2 -32 -4z"/>
<path d="M2418 3963 c17 -2 47 -2 65 0 17 2 3 4 -33 4 -36 0 -50 -2 -32 -4z"/>
<path d="M2698 3963 c18 -2 45 -2 60 0 15 2 0 4 -33 4 -33 0 -45 -2 -27 -4z"/>
<path d="M234 3825 c0 -71 1 -99 3 -62 2 37 2 96 0 130 -2 34 -3 4 -3 -68z"/>
<path d="M804 3825 c0 -71 1 -102 3 -68 l4 62 62 4 62 3 -62 2 -62 2 -4 63
c-2 34 -3 4 -3 -68z"/>
<path d="M943 3895 c0 -33 2 -45 4 -27 2 18 2 45 0 60 -2 15 -4 0 -4 -33z"/>
<path d="M1083 3895 c0 -33 2 -45 4 -27 2 18 2 45 0 60 -2 15 -4 0 -4 -33z"/>
<path d="M1513 3895 c0 -33 2 -45 4 -27 2 18 2 45 0 60 -2 15 -4 0 -4 -33z"/>
<path d="M1654 3830 c0 -69 1 -97 3 -62 2 34 2 90 0 125 -2 34 -3 6 -3 -63z"/>
<path d="M2223 3880 c0 -36 2 -50 4 -32 2 17 2 47 0 65 -2 17 -4 3 -4 -33z"/>
<path d="M1373 3780 c0 -36 2 -50 4 -32 2 17 2 47 0 65 -2 17 -4 3 -4 -33z"/>
<path d="M2590 3830 l-65 -7 68 -1 c39 -1 67 2 67 8 0 6 -1 9 -2 8 -2 -1 -32
-4 -68 -8z"/>
<path d="M2730 3830 l-65 -7 68 -1 c39 -1 67 2 67 8 0 6 -1 9 -2 8 -2 -1 -32
-4 -68 -8z"/>
<path d="M138 3823 c18 -2 45 -2 60 0 15 2 0 4 -33 4 -33 0 -45 -2 -27 -4z"/>
<path d="M278 3823 c18 -2 45 -2 60 0 15 2 0 4 -33 4 -33 0 -45 -2 -27 -4z"/>
<path d="M428 3823 c18 -2 45 -2 60 0 15 2 0 4 -33 4 -33 0 -45 -2 -27 -4z"/>
<path d="M567 3823 c18 -2 50 -2 70 0 21 2 7 4 -32 4 -38 0 -55 -2 -38 -4z"/>
<path d="M1128 3823 c18 -2 45 -2 60 0 15 2 0 4 -33 4 -33 0 -45 -2 -27 -4z"/>
<path d="M1253 3823 c20 -2 54 -2 75 0 20 2 3 4 -38 4 -41 0 -58 -2 -37 -4z"/>
<path d="M1418 3823 c18 -2 45 -2 60 0 15 2 0 4 -33 4 -33 0 -45 -2 -27 -4z"/>
<path d="M1537 3823 c18 -2 50 -2 70 0 21 2 7 4 -32 4 -38 0 -55 -2 -38 -4z"/>
<path d="M1698 3823 c18 -2 45 -2 60 0 15 2 0 4 -33 4 -33 0 -45 -2 -27 -4z"/>
<path d="M2128 3823 c18 -2 45 -2 60 0 15 2 0 4 -33 4 -33 0 -45 -2 -27 -4z"/>
<path d="M2268 3823 c18 -2 45 -2 60 0 15 2 0 4 -33 4 -33 0 -45 -2 -27 -4z"/>
<path d="M2387 3823 c18 -2 50 -2 70 0 21 2 7 4 -32 4 -38 0 -55 -2 -38 -4z"/>
<path d="M2838 3823 c18 -2 45 -2 60 0 15 2 0 4 -33 4 -33 0 -45 -2 -27 -4z"/>
<path d="M373 3755 c0 -33 2 -45 4 -27 2 18 2 45 0 60 -2 15 -4 0 -4 -33z"/>
<path d="M943 3755 c0 -33 2 -45 4 -27 2 18 2 45 0 60 -2 15 -4 0 -4 -33z"/>
<path d="M1513 3755 c0 -33 2 -45 4 -27 2 18 2 45 0 60 -2 15 -4 0 -4 -33z"/>
<path d="M2653 3755 c0 -33 2 -45 4 -27 2 18 2 45 0 60 -2 15 -4 0 -4 -33z"/>
<path d="M2793 3755 c0 -33 2 -45 4 -27 2 18 2 45 0 60 -2 15 -4 0 -4 -33z"/>
<path d="M2933 3755 c0 -33 2 -45 4 -27 2 18 2 45 0 60 -2 15 -4 0 -4 -33z"/>
<path d="M137 3683 c18 -2 50 -2 70 0 21 2 7 4 -32 4 -38 0 -55 -2 -38 -4z"/>
<path d="M283 3683 c20 -2 54 -2 75 0 20 2 3 4 -38 4 -41 0 -58 -2 -37 -4z"/>
<path d="M427 3683 c18 -2 50 -2 70 0 21 2 7 4 -32 4 -38 0 -55 -2 -38 -4z"/>
<path d="M567 3683 c18 -2 50 -2 70 0 21 2 7 4 -32 4 -38 0 -55 -2 -38 -4z"/>
<path d="M707 3683 c18 -2 50 -2 70 0 21 2 7 4 -32 4 -38 0 -55 -2 -38 -4z"/>
<path d="M847 3683 c18 -2 50 -2 70 0 21 2 7 4 -32 4 -38 0 -55 -2 -38 -4z"/>
<path d="M2008 3683 c18 -2 45 -2 60 0 15 2 0 4 -33 4 -33 0 -45 -2 -27 -4z"/>
<path d="M2128 3683 c18 -2 45 -2 60 0 15 2 0 4 -33 4 -33 0 -45 -2 -27 -4z"/>
<path d="M2328 3683 c61 -2 163 -2 225 0 61 1 11 3 -113 3 -124 0 -174 -2
-112 -3z"/>
<path d="M2753 3683 c48 -2 125 -2 170 0 45 1 6 3 -88 3 -93 0 -130 -2 -82 -3z"/>
<path d="M1093 3615 l0 -65 63 0 64 0 0 65 0 65 -63 0 -63 0 -1 -65z m86 16
c21 -13 5 -41 -24 -41 -27 0 -33 18 -13 38 14 14 19 15 37 3z"/>
<path d="M1240 3615 l0 -65 60 0 60 0 0 65 0 65 -60 0 -60 0 0 -65z m88 -2
c-4 -35 -43 -45 -53 -14 -9 28 1 41 31 41 22 0 25 -4 22 -27z"/>
<path d="M1380 3615 l0 -65 65 0 65 0 0 65 0 65 -65 0 -65 0 0 -65z m88 13
c14 -14 -2 -38 -28 -38 -23 0 -29 8 -23 31 6 21 33 25 51 7z"/>
<path d="M1522 3615 l0 -65 64 0 64 0 0 65 0 65 -64 0 -65 0 1 -65z m91 13 c7
-22 -4 -38 -28 -38 -13 0 -25 6 -28 13 -7 21 4 37 28 37 13 0 25 -6 28 -12z"/>
<path d="M1665 3615 l0 -65 63 0 62 0 0 65 0 65 -62 0 -63 0 0 -65z m88 6 c7
-28 -7 -44 -32 -36 -20 6 -28 34 -14 48 13 14 41 6 46 -12z"/>
<path d="M1810 3615 l0 -65 63 0 62 0 0 65 0 65 -62 0 -63 0 0 -65z m83 6 c6
-23 0 -31 -24 -31 -22 0 -33 16 -25 35 8 22 43 18 49 -4z"/>
<path d="M233 3615 c0 -33 2 -45 4 -27 2 18 2 45 0 60 -2 15 -4 0 -4 -33z"/>
<path d="M373 3615 c0 -33 2 -45 4 -27 2 18 2 45 0 60 -2 15 -4 0 -4 -33z"/>
<path d="M513 3615 c0 -33 2 -45 4 -27 2 18 2 45 0 60 -2 15 -4 0 -4 -33z"/>
<path d="M803 3615 c0 -33 2 -45 4 -27 2 18 2 45 0 60 -2 15 -4 0 -4 -33z"/>
<path d="M2223 3615 c0 -33 2 -45 4 -27 2 18 2 45 0 60 -2 15 -4 0 -4 -33z"/>
<path d="M2653 3615 c0 -33 2 -45 4 -27 2 18 2 45 0 60 -2 15 -4 0 -4 -33z"/>
<path d="M2793 3615 c0 -33 2 -45 4 -27 2 18 2 45 0 60 -2 15 -4 0 -4 -33z"/>
<path d="M2933 3615 c0 -33 2 -45 4 -27 2 18 2 45 0 60 -2 15 -4 0 -4 -33z"/>
<path d="M138 3543 c18 -2 45 -2 60 0 15 2 0 4 -33 4 -33 0 -45 -2 -27 -4z"/>
<path d="M233 3485 c0 -38 2 -53 4 -32 2 20 2 52 0 70 -2 17 -4 1 -4 -38z"/>
<path d="M278 3543 c18 -2 45 -2 60 0 15 2 0 4 -33 4 -33 0 -45 -2 -27 -4z"/>
<path d="M428 3543 c18 -2 45 -2 60 0 15 2 0 4 -33 4 -33 0 -45 -2 -27 -4z"/>
<path d="M567 3543 c18 -2 50 -2 70 0 21 2 7 4 -32 4 -38 0 -55 -2 -38 -4z"/>
<path d="M803 3485 c0 -38 2 -53 4 -32 2 20 2 52 0 70 -2 17 -4 1 -4 -38z"/>
<path d="M848 3543 c18 -2 45 -2 60 0 15 2 0 4 -33 4 -33 0 -45 -2 -27 -4z"/>
<path d="M2223 3490 c0 -36 2 -50 4 -32 2 17 2 47 0 65 -2 17 -4 3 -4 -33z"/>
<path d="M2268 3543 c18 -2 45 -2 60 0 15 2 0 4 -33 4 -33 0 -45 -2 -27 -4z"/>
<path d="M2387 3543 c18 -2 50 -2 70 0 21 2 7 4 -32 4 -38 0 -55 -2 -38 -4z"/>
<path d="M2545 3544 c48 -8 115 -9 115 -2 0 5 -30 7 -67 7 -38 -1 -59 -3 -48
-5z"/>
<path d="M2698 3543 c18 -2 45 -2 60 0 15 2 0 4 -33 4 -33 0 -45 -2 -27 -4z"/>
<path d="M2838 3543 c18 -2 45 -2 60 0 15 2 0 4 -33 4 -33 0 -45 -2 -27 -4z"/>
<path d="M950 3475 l0 -65 65 0 65 0 0 65 0 65 -65 0 -65 0 0 -65z m88 1 c2
-10 0 -22 -5 -27 -15 -15 -43 1 -43 25 0 17 5 22 23 21 12 -1 23 -9 25 -19z"/>
<path d="M1240 3473 l0 -63 65 0 66 0 -3 61 -3 61 -63 2 -62 1 0 -62z m88 1
c2 -13 -4 -24 -13 -28 -24 -9 -35 1 -35 30 0 21 4 25 23 22 13 -2 23 -11 25
-24z"/>
<path d="M1664 3531 c-2 -2 -4 -31 -4 -63 l0 -58 65 0 65 0 0 63 0 62 -61 0
c-33 0 -63 -2 -65 -4z m84 -58 c-3 -29 -35 -41 -45 -17 -8 23 5 44 27 44 17 0
21 -5 18 -27z"/>
<path d="M1950 3475 l0 -65 65 0 65 0 0 65 0 65 -65 0 -65 0 0 -65z m78 16
c19 -12 11 -45 -12 -49 -24 -5 -37 17 -25 40 11 20 18 22 37 9z"/>
<path d="M230 3265 l0 -144 -62 -4 -63 -3 68 -2 67 -2 0 150 c0 83 -2 150 -5
150 -3 0 -5 -65 -5 -145z"/>
<path d="M803 3345 c0 -38 2 -53 4 -32 2 20 2 52 0 70 -2 17 -4 1 -4 -38z"/>
<path d="M2698 3403 c18 -2 45 -2 60 0 15 2 0 4 -33 4 -33 0 -45 -2 -27 -4z"/>
<path d="M2793 3345 c0 -38 2 -53 4 -32 2 20 2 52 0 70 -2 17 -4 1 -4 -38z"/>
<path d="M950 3330 l0 -60 65 0 65 0 0 60 0 60 -65 0 -65 0 0 -60z m84 24 c9
-3 16 -15 16 -25 0 -14 -7 -19 -30 -19 -22 0 -30 5 -30 18 0 30 13 38 44 26z"/>
<path d="M1100 3330 l0 -60 60 0 60 0 0 60 0 60 -60 0 -60 0 0 -60z m74 24
c21 -8 20 -31 -1 -42 -24 -12 -43 -4 -43 17 0 29 14 37 44 25z"/>
<path d="M1240 3330 l0 -60 60 0 60 0 0 60 0 60 -60 0 -60 0 0 -60z m90 5 c0
-20 -5 -25 -24 -25 -14 0 -28 5 -31 10 -12 19 4 40 30 40 20 0 25 -5 25 -25z"/>
<path d="M1380 3330 l0 -60 65 0 65 0 0 60 0 60 -65 0 -65 0 0 -60z m88 2 c3
-19 -1 -22 -27 -22 -33 0 -41 16 -19 38 18 18 43 10 46 -16z"/>
<path d="M1523 3330 l0 -60 64 0 63 0 0 60 0 60 -63 0 -64 0 0 -60z m87 6 c0
-24 -22 -37 -47 -29 -17 6 -16 18 3 37 23 24 44 20 44 -8z"/>
<path d="M1665 3330 l0 -60 63 0 62 0 0 60 0 60 -62 0 -63 0 0 -60z m88 10 c6
-23 -19 -41 -44 -31 -12 4 -14 12 -8 29 10 28 45 29 52 2z"/>
<path d="M1810 3330 l0 -60 60 0 60 0 0 60 0 60 -60 0 -60 0 0 -60z m84 7 c13
-21 -6 -37 -35 -30 -21 6 -26 39 -6 46 18 8 29 3 41 -16z"/>
<path d="M1950 3330 l0 -60 65 0 65 0 0 60 0 60 -65 0 -65 0 0 -60z m87 15 c2
-6 -2 -19 -9 -28 -12 -15 -16 -16 -32 -4 -25 19 -14 50 16 45 12 -2 23 -8 25
-13z"/>
<path d="M810 3188 l0 -63 65 -1 65 0 0 63 0 63 -65 0 -65 0 0 -62z m90 9 c0
-7 -5 -19 -10 -27 -7 -12 -12 -12 -22 -2 -17 17 -17 36 2 43 18 8 30 2 30 -14z"/>
<path d="M1513 3190 c0 -36 2 -50 4 -32 2 17 2 47 0 65 -2 17 -4 3 -4 -33z"/>
<path d="M2090 3188 l0 -63 65 0 65 0 0 63 0 62 -65 0 -65 0 0 -62z m90 12 c0
-20 -13 -40 -26 -40 -20 0 -29 27 -14 45 11 14 40 10 40 -5z"/>
<path d="M1083 3185 c0 -33 2 -45 4 -27 2 18 2 45 0 60 -2 15 -4 0 -4 -33z"/>
<path d="M1373 3185 c0 -33 2 -45 4 -27 2 18 2 45 0 60 -2 15 -4 0 -4 -33z"/>
<path d="M1653 3185 c0 -33 2 -45 4 -27 2 18 2 45 0 60 -2 15 -4 0 -4 -33z"/>
<path d="M2793 3185 c0 -33 2 -45 4 -27 2 18 2 45 0 60 -2 15 -4 0 -4 -33z"/>
<path d="M2933 3185 c0 -33 2 -45 4 -27 2 18 2 45 0 60 -2 15 -4 0 -4 -33z"/>
<path d="M1939 3223 c-5 -70 -5 -84 3 -89 4 -3 8 18 8 45 0 28 -2 51 -5 51 -3
0 -5 -3 -6 -7z"/>
<path d="M1790 3176 c0 -26 4 -45 8 -42 10 6 8 73 -2 83 -3 3 -6 -15 -6 -41z"/>
<path d="M2650 3170 l0 -49 -62 -4 -63 -3 68 -2 67 -2 0 55 c0 30 -2 55 -5 55
-3 0 -5 -22 -5 -50z"/>
<path d="M1244 3118 c-3 -4 23 -7 58 -7 66 1 62 6 -10 11 -24 2 -46 0 -48 -4z"/>
<path d="M1430 3120 l-55 -5 -1 -65 -1 -65 4 62 4 62 62 3 c34 2 58 5 52 8 -5
3 -35 3 -65 0z"/>
<path d="M1568 3122 l-58 -3 2 -67 2 -67 3 62 4 62 62 3 c34 2 58 5 52 8 -5 3
-36 4 -67 2z"/>
<path d="M1715 3120 l-50 -7 58 -1 c37 -1 56 2 52 8 -3 6 -7 9 -8 8 -1 0 -24
-4 -52 -8z"/>
<path d="M278 3113 c18 -2 45 -2 60 0 15 2 0 4 -33 4 -33 0 -45 -2 -27 -4z"/>
<path d="M427 3113 c18 -2 50 -2 70 0 21 2 7 4 -32 4 -38 0 -55 -2 -38 -4z"/>
<path d="M1017 3112 l62 -3 4 -62 3 -62 2 62 2 62 68 3 c37 2 6 4 -68 4 -74 0
-107 -2 -73 -4z"/>
<path d="M1838 3113 c18 -2 45 -2 60 0 15 2 0 4 -33 4 -33 0 -45 -2 -27 -4z"/>
<path d="M1940 3051 l5 -66 3 62 3 62 57 4 57 3 -65 1 -65 0 5 -66z"/>
<path d="M2698 3113 c18 -2 45 -2 60 0 15 2 0 4 -33 4 -33 0 -45 -2 -27 -4z"/>
<path d="M2837 3113 c18 -2 50 -2 70 0 21 2 7 4 -32 4 -38 0 -55 -2 -38 -4z"/>
<path d="M670 3048 l0 -63 62 2 63 1 2 61 3 61 -65 0 -65 0 0 -62z m85 -3 c0
-30 -39 -27 -43 3 -3 20 0 23 20 20 15 -2 23 -10 23 -23z"/>
<path d="M1653 3050 c0 -36 2 -50 4 -32 2 17 2 47 0 65 -2 17 -4 3 -4 -33z"/>
<path d="M2232 3048 l3 -61 63 -1 62 -1 0 63 0 62 -65 0 -66 0 3 -62z m88 -3
c0 -18 -5 -25 -19 -25 -11 0 -23 5 -26 10 -11 18 3 40 25 40 15 0 20 -7 20
-25z"/>
<path d="M233 3040 c0 -36 2 -50 4 -32 2 17 2 47 0 65 -2 17 -4 3 -4 -33z"/>
<path d="M373 3045 c0 -33 2 -45 4 -27 2 18 2 45 0 60 -2 15 -4 0 -4 -33z"/>
<path d="M943 3045 c0 -33 2 -45 4 -27 2 18 2 45 0 60 -2 15 -4 0 -4 -33z"/>
<path d="M1222 3056 c2 -24 5 -42 8 -40 9 9 8 84 -1 84 -6 0 -8 -20 -7 -44z"/>
<path d="M1790 3043 c0 -31 3 -53 7 -50 9 10 10 107 1 107 -5 0 -8 -25 -8 -57z"/>
<path d="M2083 3045 c0 -33 2 -45 4 -27 2 18 2 45 0 60 -2 15 -4 0 -4 -33z"/>
<path d="M138 2973 c18 -2 45 -2 60 0 15 2 0 4 -33 4 -33 0 -45 -2 -27 -4z"/>
<path d="M278 2973 c18 -2 45 -2 60 0 15 2 0 4 -33 4 -33 0 -45 -2 -27 -4z"/>
<path d="M428 2973 c18 -2 45 -2 60 0 15 2 0 4 -33 4 -33 0 -45 -2 -27 -4z"/>
<path d="M848 2973 c18 -2 45 -2 60 0 15 2 0 4 -33 4 -33 0 -45 -2 -27 -4z"/>
<path d="M942 2773 l3 -208 2 203 3 202 65 0 64 0 4 -62 3 -63 2 68 2 67 -75
0 -75 0 2 -207z"/>
<path d="M1128 2973 c17 -2 47 -2 65 0 17 2 3 4 -33 4 -36 0 -50 -2 -32 -4z"/>
<path d="M1268 2973 c17 -2 47 -2 65 0 17 2 3 4 -33 4 -36 0 -50 -2 -32 -4z"/>
<path d="M1397 2973 c18 -2 50 -2 70 0 21 2 7 4 -32 4 -38 0 -55 -2 -38 -4z"/>
<path d="M1512 2913 l2 -68 3 62 4 62 62 4 62 3 -67 2 -68 2 2 -67z"/>
<path d="M1677 2973 c18 -2 50 -2 70 0 21 2 7 4 -32 4 -38 0 -55 -2 -38 -4z"/>
<path d="M1838 2973 c17 -2 47 -2 65 0 17 2 3 4 -33 4 -36 0 -50 -2 -32 -4z"/>
<path d="M1967 2973 c18 -2 50 -2 70 0 21 2 7 4 -32 4 -38 0 -55 -2 -38 -4z"/>
<path d="M2087 2974 c-4 -4 -6 -131 -5 -283 2 -152 4 -214 6 -139 l3 137 62 4
62 3 -62 2 -63 2 0 65 0 64 63 4 62 3 -62 2 -63 2 0 65 0 64 63 4 62 3 -61 2
c-33 1 -64 -1 -67 -4z"/>
<path d="M2557 2973 c18 -2 50 -2 70 0 21 2 7 4 -32 4 -38 0 -55 -2 -38 -4z"/>
<path d="M2698 2973 c18 -2 45 -2 60 0 15 2 0 4 -33 4 -33 0 -45 -2 -27 -4z"/>
<path d="M2838 2973 c18 -2 45 -2 60 0 15 2 0 4 -33 4 -33 0 -45 -2 -27 -4z"/>
<path d="M233 2910 c0 -36 2 -50 4 -32 2 17 2 47 0 65 -2 17 -4 3 -4 -33z"/>
<path d="M670 2905 l0 -65 64 0 65 0 -1 65 0 65 -64 0 -64 0 0 -65z m90 0 c0
-20 -5 -25 -25 -25 -20 0 -25 5 -25 25 0 20 5 25 25 25 20 0 25 -5 25 -25z"/>
<path d="M2230 2905 l0 -65 65 0 65 0 0 65 0 65 -65 0 -65 0 0 -65z m90 0 c0
-18 -5 -25 -19 -25 -11 0 -23 5 -26 10 -11 18 3 40 25 40 15 0 20 -7 20 -25z"/>
<path d="M373 2905 c0 -33 2 -45 4 -27 2 18 2 45 0 60 -2 15 -4 0 -4 -33z"/>
<path d="M1374 2895 l1 -60 60 -1 60 0 -57 3 -57 4 -4 57 -3 57 0 -60z"/>
<path d="M1654 2835 c0 -71 2 -102 4 -68 l3 62 62 4 62 3 -62 2 -62 2 -3 63
c-2 34 -4 4 -4 -68z"/>
<path d="M1790 2905 c0 -30 3 -55 8 -55 4 0 7 25 7 55 0 30 -3 55 -7 55 -5 0
-8 -25 -8 -55z"/>
<path d="M1944 2895 l1 -60 60 -1 60 0 -57 3 -57 4 -4 57 -3 57 0 -60z"/>
<path d="M2653 2905 c0 -33 2 -45 4 -27 2 18 2 45 0 60 -2 15 -4 0 -4 -33z"/>
<path d="M2793 2905 c0 -33 2 -45 4 -27 2 18 2 45 0 60 -2 15 -4 0 -4 -33z"/>
<path d="M2933 2905 c0 -33 2 -45 4 -27 2 18 2 45 0 60 -2 15 -4 0 -4 -33z"/>
<path d="M137 2833 c18 -2 50 -2 70 0 21 2 7 4 -32 4 -38 0 -55 -2 -38 -4z"/>
<path d="M283 2833 c20 -2 54 -2 75 0 20 2 3 4 -38 4 -41 0 -58 -2 -37 -4z"/>
<path d="M427 2833 c18 -2 50 -2 70 0 21 2 7 4 -32 4 -38 0 -55 -2 -38 -4z"/>
<path d="M848 2833 c18 -2 45 -2 60 0 15 2 0 4 -33 4 -33 0 -45 -2 -27 -4z"/>
<path d="M988 2833 c18 -2 45 -2 60 0 15 2 0 4 -33 4 -33 0 -45 -2 -27 -4z"/>
<path d="M1128 2833 c17 -2 47 -2 65 0 17 2 3 4 -33 4 -36 0 -50 -2 -32 -4z"/>
<path d="M1268 2833 c17 -2 47 -2 65 0 17 2 3 4 -33 4 -36 0 -50 -2 -32 -4z"/>
<path d="M1548 2833 c17 -2 47 -2 65 0 17 2 3 4 -33 4 -36 0 -50 -2 -32 -4z"/>
<path d="M1838 2833 c17 -2 47 -2 65 0 17 2 3 4 -33 4 -36 0 -50 -2 -32 -4z"/>
<path d="M2463 2833 c37 -2 97 -2 135 0 37 2 6 3 -68 3 -74 0 -105 -1 -67 -3z"/>
<path d="M2753 2833 c48 -2 125 -2 170 0 45 1 6 3 -88 3 -93 0 -130 -2 -82 -3z"/>
<path d="M670 2763 l0 -63 65 0 66 0 -3 62 -3 62 -62 1 -63 1 0 -63z m90 3 c0
-24 -23 -41 -41 -30 -5 3 -9 16 -9 30 0 19 5 24 25 24 20 0 25 -5 25 -24z"/>
<path d="M2230 2763 l0 -63 65 0 65 0 0 63 0 62 -65 1 -65 0 0 -63z m90 3 c0
-25 -15 -36 -37 -29 -7 3 -13 16 -13 29 0 19 5 24 25 24 20 0 25 -5 25 -24z"/>
<path d="M234 2620 c0 -113 2 -159 3 -102 2 56 2 148 0 205 -1 56 -3 10 -3
-103z"/>
<path d="M373 2765 c0 -33 2 -45 4 -27 2 18 2 45 0 60 -2 15 -4 0 -4 -33z"/>
<path d="M1083 2765 c0 -33 2 -45 4 -27 2 18 2 45 0 60 -2 15 -4 0 -4 -33z"/>
<path d="M1373 2765 c0 -33 2 -45 4 -27 2 18 2 45 0 60 -2 15 -4 0 -4 -33z"/>
<path d="M1514 2695 c0 -71 1 -102 3 -67 l4 63 54 -2 c30 -1 58 0 62 4 3 4
-21 7 -55 7 l-61 0 -4 63 c-2 34 -3 4 -3 -68z"/>
<path d="M1790 2765 c0 -30 4 -55 8 -55 5 0 8 25 8 55 0 30 -3 55 -8 55 -4 0
-8 -25 -8 -55z"/>
<path d="M1939 2815 c-3 -26 0 -97 5 -102 3 -3 6 19 6 50 0 32 -2 57 -5 57 -3
0 -5 -2 -6 -5z"/>
<path d="M2653 2765 c0 -33 2 -45 4 -27 2 18 2 45 0 60 -2 15 -4 0 -4 -33z"/>
<path d="M2793 2765 c0 -33 2 -45 4 -27 2 18 2 45 0 60 -2 15 -4 0 -4 -33z"/>
<path d="M2933 2765 c0 -33 2 -45 4 -27 2 18 2 45 0 60 -2 15 -4 0 -4 -33z"/>
<path d="M278 2693 c18 -2 45 -2 60 0 15 2 0 4 -33 4 -33 0 -45 -2 -27 -4z"/>
<path d="M427 2693 c18 -2 50 -2 70 0 21 2 7 4 -32 4 -38 0 -55 -2 -38 -4z"/>
<path d="M848 2693 c18 -2 45 -2 60 0 15 2 0 4 -33 4 -33 0 -45 -2 -27 -4z"/>
<path d="M988 2693 c18 -2 45 -2 60 0 15 2 0 4 -33 4 -33 0 -45 -2 -27 -4z"/>
<path d="M1103 2693 c8 -8 106 -7 114 1 4 3 -22 6 -57 6 -35 0 -60 -3 -57 -7z"/>
<path d="M1243 2694 c3 -4 29 -7 57 -7 28 0 54 3 57 7 3 3 -22 6 -57 6 -35 0
-60 -3 -57 -6z"/>
<path d="M1408 2693 c17 -2 47 -2 65 0 17 2 3 4 -33 4 -36 0 -50 -2 -32 -4z"/>
<path d="M1661 2696 c7 -8 108 -10 115 -3 4 4 -21 7 -56 7 -35 0 -61 -2 -59
-4z"/>
<path d="M1838 2693 c17 -2 47 -2 65 0 17 2 3 4 -33 4 -36 0 -50 -2 -32 -4z"/>
<path d="M1951 2696 c7 -8 108 -10 115 -3 4 4 -21 7 -56 7 -35 0 -61 -2 -59
-4z"/>
<path d="M2545 2694 c48 -8 115 -9 115 -2 0 5 -30 7 -67 7 -38 -1 -59 -3 -48
-5z"/>
<path d="M2697 2693 c18 -2 50 -2 70 0 21 2 7 4 -32 4 -38 0 -55 -2 -38 -4z"/>
<path d="M2838 2693 c18 -2 45 -2 60 0 15 2 0 4 -33 4 -33 0 -45 -2 -27 -4z"/>
<path d="M670 2623 l0 -63 65 0 65 0 0 59 0 59 -65 4 -65 3 0 -62z m85 -3 c0
-18 -6 -26 -22 -28 -18 -3 -23 1 -23 21 0 28 9 39 30 35 9 -2 15 -14 15 -28z"/>
<path d="M2293 2683 l-63 -4 0 -59 0 -60 65 0 65 0 0 65 c0 36 -1 64 -2 63 -2
-1 -31 -3 -65 -5z m22 -63 c0 -16 -6 -26 -18 -28 -19 -4 -32 20 -23 44 9 25
41 13 41 -16z"/>
<path d="M1083 2625 c0 -33 2 -45 4 -27 2 18 2 45 0 60 -2 15 -4 0 -4 -33z"/>
<path d="M1653 2625 c0 -33 2 -45 4 -27 2 18 2 45 0 60 -2 15 -4 0 -4 -33z"/>
<path d="M1790 2623 c0 -31 3 -54 6 -50 10 9 12 107 3 107 -5 0 -9 -25 -9 -57z"/>
<path d="M1940 2631 c-7 -73 5 -88 69 -87 72 2 75 16 3 16 l-61 0 -3 63 -3 62
-5 -54z"/>
<path d="M1104 2553 c11 -11 106 -13 106 -3 0 6 -25 10 -57 10 -31 0 -53 -3
-49 -7z"/>
<path d="M1830 2550 c36 -12 90 -12 90 0 0 6 -25 10 -57 9 -44 -1 -52 -3 -33
-9z"/>
<path d="M2100 2552 c0 -5 23 -8 50 -8 28 0 50 4 50 8 0 5 -22 8 -50 8 -27 0
-50 -4 -50 -8z"/>
<path d="M2653 2495 c0 -38 2 -53 4 -32 2 20 2 52 0 70 -2 17 -4 1 -4 -38z"/>
<path d="M2793 2495 c0 -38 2 -53 4 -32 2 20 2 52 0 70 -2 17 -4 1 -4 -38z"/>
<path d="M1240 2480 l0 -65 60 1 c33 1 60 5 60 8 0 3 0 30 0 60 l0 54 -60 4
-60 3 0 -65z m90 -1 c0 -14 -7 -19 -25 -19 -18 0 -25 5 -25 19 0 11 6 21 13
24 20 7 37 -4 37 -24z"/>
<path d="M670 2478 l0 -63 61 1 61 2 2 61 1 61 -62 0 -63 0 0 -62z m88 10 c-2
-15 -11 -24 -25 -26 -19 -3 -23 1 -23 22 0 21 5 26 26 26 21 0 25 -4 22 -22z"/>
<path d="M810 2480 l0 -60 55 0 c30 0 58 -1 63 -2 4 -2 8 25 8 60 l2 62 -64 0
-64 0 0 -60z m84 7 c8 -14 8 -20 -4 -27 -22 -14 -35 -7 -38 24 -3 22 0 27 14
24 9 -1 22 -11 28 -21z"/>
<path d="M955 2481 l0 -60 62 -3 63 -3 0 63 0 62 -63 0 -62 0 0 -59z m80 19
c3 -6 4 -19 0 -29 -7 -24 -45 -16 -45 9 0 25 33 39 45 20z"/>
<path d="M1382 2479 l3 -62 60 0 60 0 3 62 3 61 -66 0 -66 0 3 -61z m79 15
c11 -14 10 -18 -5 -30 -24 -17 -36 -10 -36 22 0 28 21 32 41 8z"/>
<path d="M1523 2481 l0 -59 60 -4 c32 -2 61 -1 63 1 2 2 4 31 4 63 l0 58 -63
0 -64 0 0 -59z m71 23 c9 -3 16 -16 16 -29 0 -17 -5 -22 -22 -21 -17 1 -24 8
-26 29 -3 27 4 32 32 21z"/>
<path d="M1666 2479 l1 -61 59 -1 59 0 3 62 3 61 -63 0 -63 0 1 -61z m83 9 c6
-17 4 -25 -8 -29 -21 -9 -46 15 -38 35 9 23 36 19 46 -6z"/>
<path d="M1943 2485 c0 -33 2 -45 4 -27 2 18 2 45 0 60 -2 15 -4 0 -4 -33z"/>
<path d="M2230 2480 l0 -60 65 0 65 0 0 60 0 60 -65 0 -65 0 0 -60z m90 5 c0
-28 -25 -44 -42 -27 -15 15 1 52 23 52 14 0 19 -7 19 -25z"/>
<path d="M1994 2409 c-3 -5 14 -9 37 -9 23 0 39 3 35 7 -11 11 -65 12 -72 2z"/>
<path d="M2089 2404 c-6 -7 -8 -39 -6 -71 l3 -58 2 63 2 62 62 0 c34 0 58 3
54 7 -12 12 -106 10 -117 -3z"/>
<path d="M233 2345 c0 -38 2 -53 4 -32 2 20 2 52 0 70 -2 17 -4 1 -4 -38z"/>
<path d="M528 2340 l4 -60 54 0 c30 0 57 1 62 3 4 1 7 28 7 60 l0 57 -65 0
-65 0 3 -60z m85 6 c9 -22 -19 -42 -37 -26 -19 15 -10 40 14 40 10 0 20 -6 23
-14z"/>
<path d="M802 2338 l-2 -68 -42 6 c-24 3 -54 1 -68 -5 -21 -8 -13 -10 43 -10
78 -1 80 0 74 85 l-3 59 -2 -67z"/>
<path d="M944 2330 l1 -65 70 -2 c57 -2 65 0 45 8 -14 6 -44 8 -67 5 l-42 -5
-4 62 -3 62 0 -65z"/>
<path d="M1092 2339 l3 -61 62 -2 62 -1 3 63 3 62 -68 0 -68 0 3 -61z m86 -1
c-5 -34 -38 -37 -38 -4 0 20 5 26 21 26 15 0 20 -5 17 -22z"/>
<path d="M1512 2339 l-2 -65 -62 2 -63 3 -5 58 c-4 45 -7 53 -13 35 -5 -12 -7
-39 -5 -60 l3 -37 -40 3 c-22 2 -51 -1 -65 -7 -21 -8 -14 -10 40 -10 l65 -1
-1 -63 0 -62 -65 -6 -64 -6 63 -1 c34 -1 62 -6 63 -12 0 -5 1 -34 1 -62 l1
-53 -64 -6 -64 -5 65 -5 64 -4 -2 -45 c-1 -25 2 -52 8 -60 7 -11 10 2 10 48
l0 62 65 0 64 0 4 -67 3 -68 2 68 2 67 65 0 64 0 4 -62 3 -63 2 62 2 62 68 4
67 3 -67 2 -68 2 0 65 0 64 63 4 62 3 -65 0 -65 -1 -3 -67 -3 -68 -64 0 -65 0
0 70 0 70 65 0 65 0 0 65 0 65 -65 0 -65 0 0 -65 0 -65 -70 0 -70 0 0 65 0 65
65 0 c76 0 78 2 72 86 l-3 59 -2 -66z m98 -143 c0 -20 -4 -24 -21 -21 -28 6
-33 11 -26 30 4 8 16 15 27 15 15 0 20 -7 20 -24z m-100 -141 l0 -65 -65 0
-65 0 0 65 0 65 65 0 65 0 0 -65z"/>
<path d="M1654 2330 l1 -65 70 -2 c57 -2 65 0 45 8 -14 6 -44 8 -67 5 l-42 -5
-4 62 -3 62 0 -65z"/>
<path d="M1806 2340 c0 -33 4 -60 8 -60 3 0 32 0 64 0 l57 0 0 60 0 60 -66 0
-65 0 2 -60z m84 -5 c0 -30 -25 -34 -39 -6 -12 21 -5 31 21 31 13 0 18 -7 18
-25z"/>
<path d="M2230 2340 l0 -60 65 0 65 0 0 60 0 60 -65 0 -65 0 0 -60z m85 0 c0
-29 -32 -41 -41 -16 -9 24 4 48 23 44 12 -2 18 -12 18 -28z"/>
<path d="M2653 2335 c0 -33 2 -45 4 -27 2 18 2 45 0 60 -2 15 -4 0 -4 -33z"/>
<path d="M2793 2335 c0 -33 2 -45 4 -27 2 18 2 45 0 60 -2 15 -4 0 -4 -33z"/>
<path d="M2933 2335 c0 -33 2 -45 4 -27 2 18 2 45 0 60 -2 15 -4 0 -4 -33z"/>
<path d="M137 2263 c18 -2 50 -2 70 0 21 2 7 4 -32 4 -38 0 -55 -2 -38 -4z"/>
<path d="M278 2263 c18 -2 45 -2 60 0 15 2 0 4 -33 4 -33 0 -45 -2 -27 -4z"/>
<path d="M1988 2263 c18 -2 45 -2 60 0 15 2 0 4 -33 4 -33 0 -45 -2 -27 -4z"/>
<path d="M2557 2263 c18 -2 50 -2 70 0 21 2 7 4 -32 4 -38 0 -55 -2 -38 -4z"/>
<path d="M2753 2263 c48 -2 125 -2 170 0 45 1 6 3 -88 3 -93 0 -130 -2 -82 -3z"/>
<path d="M528 2198 l4 -63 61 0 62 0 1 62 1 63 -66 0 -66 0 3 -62z m80 -1 c3
-23 0 -27 -22 -27 -18 0 -24 4 -21 15 3 8 7 22 10 31 8 24 30 11 33 -19z"/>
<path d="M810 2195 l0 -65 -72 -2 -73 -2 68 -3 67 -4 0 -64 0 -64 -67 -4 -68
-4 70 1 70 1 3 73 3 72 64 0 65 0 2 -72 2 -73 3 67 4 67 67 4 67 3 -72 2 -73
2 0 65 0 65 -65 0 -65 0 0 -65z m83 11 c5 -13 -10 -36 -24 -36 -10 0 -20 30
-13 41 8 14 31 11 37 -5z"/>
<path d="M1090 2197 l0 -62 65 0 65 0 0 63 0 62 -65 0 -65 0 0 -63z m88 0 c3
-21 -1 -27 -16 -27 -25 0 -36 26 -19 45 17 20 31 13 35 -18z"/>
<path d="M1807 2198 l1 -62 62 0 62 0 2 62 1 62 -65 0 -65 0 2 -62z m88 2 c0
-18 -6 -26 -22 -28 -18 -3 -23 1 -23 21 0 28 9 39 30 35 9 -2 15 -14 15 -28z"/>
<path d="M2090 2197 l0 -62 65 0 65 0 0 63 0 62 -65 0 -65 0 0 -63z m88 15
c15 -10 7 -38 -13 -46 -18 -6 -39 20 -31 39 6 16 24 19 44 7z"/>
<path d="M2235 2195 l0 -65 62 0 63 0 0 65 0 65 -62 0 -63 0 0 -65z m93 8 c2
-14 -3 -23 -17 -28 -28 -9 -41 1 -41 31 0 22 4 25 28 22 19 -2 28 -9 30 -25z"/>
<path d="M2378 2198 l3 -63 59 0 59 0 3 63 3 62 -65 0 -65 0 3 -62z m82 -2 c0
-25 -15 -36 -37 -29 -7 3 -13 16 -13 29 0 19 5 24 25 24 20 0 25 -5 25 -24z"/>
<path d="M234 2125 c0 -71 1 -99 3 -62 2 37 2 96 0 130 -2 34 -3 4 -3 -68z"/>
<path d="M373 2195 c0 -33 2 -45 4 -27 2 18 2 45 0 60 -2 15 -4 0 -4 -33z"/>
<path d="M138 2123 c18 -2 45 -2 60 0 15 2 0 4 -33 4 -33 0 -45 -2 -27 -4z"/>
<path d="M278 2123 c18 -2 45 -2 60 0 15 2 0 4 -33 4 -33 0 -45 -2 -27 -4z"/>
<path d="M1988 2123 c18 -2 45 -2 60 0 15 2 0 4 -33 4 -33 0 -45 -2 -27 -4z"/>
<path d="M2568 2123 c17 -2 47 -2 65 0 17 2 3 4 -33 4 -36 0 -50 -2 -32 -4z"/>
<path d="M2697 2123 c18 -2 50 -2 70 0 21 2 7 4 -32 4 -38 0 -55 -2 -38 -4z"/>
<path d="M2838 2123 c18 -2 45 -2 60 0 15 2 0 4 -33 4 -33 0 -45 -2 -27 -4z"/>
<path d="M528 2055 l4 -65 63 0 63 0 -1 65 -1 65 -65 0 -66 0 3 -65z m82 0 c0
-13 -5 -27 -11 -31 -23 -14 -47 41 -25 58 16 11 36 -4 36 -27z"/>
<path d="M1090 2055 l0 -65 64 0 64 0 4 65 3 65 -67 0 -68 0 0 -65z m90 0 c0
-28 -17 -42 -33 -26 -17 17 -15 45 3 52 21 9 30 1 30 -26z"/>
<path d="M1805 2055 l0 -65 62 0 63 0 0 65 0 65 -62 0 -63 0 0 -65z m95 6 c0
-4 -6 -16 -14 -26 -12 -16 -16 -17 -29 -6 -16 13 -12 40 7 53 10 7 36 -8 36
-21z"/>
<path d="M2090 2055 l0 -65 65 0 65 0 0 65 0 65 -65 0 -65 0 0 -65z m85 -1 c0
-32 -21 -39 -38 -12 -8 12 -7 21 3 32 19 24 35 14 35 -20z"/>
<path d="M2380 2071 c0 -27 -3 -56 -6 -65 -5 -14 4 -16 62 -16 l69 0 -3 65 -4
65 -59 0 -59 0 0 -49z m78 -14 c3 -21 -1 -27 -17 -27 -25 0 -34 14 -26 39 9
28 39 19 43 -12z"/>
<path d="M373 2055 c0 -33 2 -45 4 -27 2 18 2 45 0 60 -2 15 -4 0 -4 -33z"/>
<path d="M2653 2055 c0 -33 2 -45 4 -27 2 18 2 45 0 60 -2 15 -4 0 -4 -33z"/>
<path d="M2793 2055 c0 -33 2 -45 4 -27 2 18 2 45 0 60 -2 15 -4 0 -4 -33z"/>
<path d="M2933 2055 c0 -33 2 -45 4 -27 2 18 2 45 0 60 -2 15 -4 0 -4 -33z"/>
<path d="M137 1983 c18 -2 50 -2 70 0 21 2 7 4 -32 4 -38 0 -55 -2 -38 -4z"/>
<path d="M283 1983 c20 -2 54 -2 75 0 20 2 3 4 -38 4 -41 0 -58 -2 -37 -4z"/>
<path d="M1978 1983 c17 -2 47 -2 65 0 17 2 3 4 -33 4 -36 0 -50 -2 -32 -4z"/>
<path d="M2568 1983 c17 -2 47 -2 65 0 17 2 3 4 -33 4 -36 0 -50 -2 -32 -4z"/>
<path d="M2753 1983 c48 -2 125 -2 170 0 45 1 6 3 -88 3 -93 0 -130 -2 -82 -3z"/>
<path d="M528 1912 l-3 -62 65 0 65 0 -1 62 0 61 -61 1 -62 1 -3 -63z m76 22
c11 -28 6 -44 -13 -44 -23 0 -32 19 -19 43 11 21 24 22 32 1z"/>
<path d="M810 1915 l0 -65 64 0 64 0 0 65 0 65 -64 0 -64 0 0 -65z m88 17 c17
-12 4 -42 -18 -42 -23 0 -34 16 -26 35 6 17 24 19 44 7z"/>
<path d="M954 1915 l1 -65 63 0 62 0 0 65 0 65 -63 0 -63 0 0 -65z m84 17 c20
-13 3 -44 -22 -40 -27 4 -36 48 -9 48 10 0 24 -4 31 -8z"/>
<path d="M1100 1913 l0 -63 63 0 62 0 -3 62 -3 63 -60 0 -59 0 0 -62z m78 1
c-2 -11 -13 -20 -26 -22 -18 -3 -22 1 -22 22 0 15 7 26 18 29 23 5 35 -7 30
-29z"/>
<path d="M1810 1975 c-1 0 -2 -28 -3 -63 l-2 -62 69 0 c58 0 67 2 62 16 -3 9
-6 37 -6 62 l0 47 -60 0 c-33 0 -60 0 -60 0z m80 -55 c0 -24 -29 -38 -40 -20
-12 19 -1 40 21 40 12 0 19 -7 19 -20z"/>
<path d="M2090 1913 l0 -63 65 0 65 0 0 63 0 62 -65 0 -65 0 0 -62z m95 9 c9
-25 -24 -47 -43 -28 -11 10 -11 18 -3 34 12 23 36 20 46 -6z"/>
<path d="M2235 1915 l0 -65 63 0 62 0 0 65 0 65 -63 0 -62 0 0 -65z m85 1 c0
-25 -20 -39 -44 -30 -8 3 -11 15 -8 30 6 34 52 35 52 0z"/>
<path d="M230 1695 l0 -274 -62 -4 -63 -3 68 -2 67 -2 0 280 c0 154 -2 280 -5
280 -3 0 -5 -124 -5 -275z"/>
<path d="M373 1915 c0 -33 2 -45 4 -27 2 18 2 45 0 60 -2 15 -4 0 -4 -33z"/>
<path d="M2653 1915 c0 -33 2 -45 4 -27 2 18 2 45 0 60 -2 15 -4 0 -4 -33z"/>
<path d="M2793 1915 c0 -33 2 -45 4 -27 2 18 2 45 0 60 -2 15 -4 0 -4 -33z"/>
<path d="M2933 1915 c0 -33 2 -45 4 -27 2 18 2 45 0 60 -2 15 -4 0 -4 -33z"/>
<path d="M138 1843 c18 -2 45 -2 60 0 15 2 0 4 -33 4 -33 0 -45 -2 -27 -4z"/>
<path d="M278 1843 c18 -2 45 -2 60 0 15 2 0 4 -33 4 -33 0 -45 -2 -27 -4z"/>
<path d="M1961 1846 c7 -8 98 -10 105 -3 4 4 -19 7 -51 7 -32 0 -56 -2 -54 -4z"/>
<path d="M2558 1843 c18 -2 45 -2 60 0 15 2 0 4 -33 4 -33 0 -45 -2 -27 -4z"/>
<path d="M2698 1843 c18 -2 45 -2 60 0 15 2 0 4 -33 4 -33 0 -45 -2 -27 -4z"/>
<path d="M2838 1843 c18 -2 45 -2 60 0 15 2 0 4 -33 4 -33 0 -45 -2 -27 -4z"/>
<path d="M670 1775 l0 -65 64 0 65 0 0 65 0 65 -65 0 -64 0 0 -65z m88 -7 c-2
-15 -10 -23 -23 -23 -13 0 -21 8 -23 23 -3 18 1 22 23 22 22 0 26 -4 23 -22z"/>
<path d="M1240 1775 l0 -65 59 0 59 0 4 61 c1 33 1 63 -1 65 -2 2 -31 4 -63 4
l-58 0 0 -65z m88 -11 c-5 -28 -44 -30 -51 -4 -4 16 0 23 16 30 26 10 40 -1
35 -26z"/>
<path d="M1380 1775 l0 -65 65 0 65 0 0 65 0 65 -65 0 -65 0 0 -65z m85 9 c12
-12 13 -19 4 -30 -15 -19 -45 -18 -53 2 -10 25 -7 32 12 37 9 3 18 5 19 6 1 0
9 -6 18 -15z"/>
<path d="M1522 1775 l1 -65 64 0 63 0 0 65 0 65 -64 0 -65 0 1 -65z m78 15
c26 -14 15 -50 -16 -50 -18 0 -24 5 -24 23 0 36 10 43 40 27z"/>
<path d="M1669 1833 c0 -5 -2 -34 -2 -65 l-2 -58 63 0 62 0 0 65 0 65 -60 0
c-33 0 -60 -3 -61 -7z m79 -61 c3 -18 -2 -22 -22 -22 -19 0 -26 5 -26 19 0 36
43 38 48 3z"/>
<path d="M943 1775 c0 -33 2 -45 4 -27 2 18 2 45 0 60 -2 15 -4 0 -4 -33z"/>
<path d="M2083 1770 c0 -36 2 -50 4 -32 2 17 2 47 0 65 -2 17 -4 3 -4 -33z"/>
<path d="M2230 1770 l0 -60 65 0 65 0 0 60 0 60 -65 0 -65 0 0 -60z m93 16 c8
-21 -17 -50 -37 -43 -16 6 -22 38 -9 50 11 12 41 7 46 -7z"/>
<path d="M1938 1774 c-2 -25 0 -51 4 -57 4 -7 8 14 8 46 0 68 -7 75 -12 11z"/>
<path d="M1820 1700 c0 -5 23 -10 50 -10 28 0 50 5 50 10 0 6 -22 10 -50 10
-27 0 -50 -4 -50 -10z"/>
<path d="M1960 1700 c0 -5 22 -10 49 -10 28 0 53 5 56 10 4 6 -15 10 -49 10
-31 0 -56 -4 -56 -10z"/>
<path d="M2653 1645 c0 -38 2 -53 4 -32 2 20 2 52 0 70 -2 17 -4 1 -4 -38z"/>
<path d="M2933 1645 c0 -38 2 -53 4 -32 2 20 2 52 0 70 -2 17 -4 1 -4 -38z"/>
<path d="M2090 1633 l0 -63 65 0 65 0 0 59 0 59 -65 4 -65 3 0 -62z m99 11 c7
-7 -9 -35 -24 -41 -23 -8 -38 11 -30 36 5 17 12 20 28 15 12 -3 24 -8 26 -10z"/>
<path d="M670 1630 l0 -60 63 0 62 0 0 60 0 60 -62 0 -63 0 0 -60z m90 0 c0
-25 -4 -30 -25 -30 -21 0 -25 5 -25 30 0 25 4 30 25 30 21 0 25 -5 25 -30z"/>
<path d="M810 1630 l0 -60 64 0 64 0 0 60 0 60 -64 0 -64 0 0 -60z m90 0 c0
-26 -25 -36 -45 -20 -12 10 -13 16 -4 26 18 22 49 17 49 -6z"/>
<path d="M954 1630 l1 -60 63 0 62 0 0 60 0 60 -64 0 -63 0 1 -60z m87 20 c13
0 11 -13 -4 -34 -15 -21 -47 -12 -47 13 0 23 11 33 28 26 7 -3 18 -5 23 -5z"/>
<path d="M1100 1630 l0 -60 60 0 60 0 0 60 0 60 -60 0 -60 0 0 -60z m87 5 c1
-5 -1 -16 -6 -24 -14 -21 -63 2 -55 24 7 18 55 17 61 0z"/>
<path d="M1240 1630 l0 -60 60 0 60 0 0 60 0 60 -60 0 -60 0 0 -60z m90 6 c0
-14 -4 -27 -8 -30 -16 -10 -52 6 -52 23 0 24 9 31 37 31 18 0 23 -6 23 -24z"/>
<path d="M1380 1630 l0 -60 64 0 65 0 0 60 -1 60 -64 0 -64 0 0 -60z m87 18
c18 -23 11 -44 -16 -46 -30 -3 -43 15 -30 40 11 21 32 23 46 6z"/>
<path d="M1524 1630 l0 -60 63 0 63 0 0 60 0 60 -63 0 -64 0 1 -60z m82 15 c8
-20 -13 -45 -32 -38 -8 3 -14 16 -14 29 0 17 6 24 20 24 11 0 23 -7 26 -15z"/>
<path d="M1943 1630 c0 -36 2 -50 4 -32 2 17 2 47 0 65 -2 17 -4 3 -4 -33z"/>
<path d="M2235 1631 l0 -60 63 -3 62 -3 0 63 0 62 -62 0 -63 0 0 -59z m88 17
c2 -7 0 -20 -4 -30 -13 -24 -49 -11 -49 18 0 19 5 24 24 24 13 0 26 -6 29 -12z"/>
<path d="M1791 1637 c1 -26 6 -47 11 -47 8 0 0 79 -9 89 -2 3 -3 -16 -2 -42z"/>
<path d="M1820 1558 c0 -5 23 -8 52 -8 28 0 48 3 45 7 -10 9 -97 10 -97 1z"/>
<path d="M670 1488 l0 -63 62 2 61 1 1 61 1 61 -62 0 -63 0 0 -62z m85 2 c0
-18 -6 -26 -22 -28 -18 -3 -23 1 -23 21 0 28 9 39 30 35 9 -2 15 -14 15 -28z"/>
<path d="M962 1508 c-1 -25 -5 -53 -8 -62 -5 -14 4 -16 60 -16 l66 0 0 61 c0
44 -3 60 -12 57 -15 -5 -20 -48 -7 -48 15 0 10 -20 -9 -40 -14 -15 -24 -18
-47 -12 -27 8 -31 13 -36 58 l-6 49 -1 -47z"/>
<path d="M1100 1490 l0 -60 60 0 60 0 0 61 c0 44 -3 59 -12 56 -8 -2 -12 -16
-10 -32 6 -55 -5 -73 -43 -73 -28 0 -36 4 -41 23 -3 13 -1 31 4 42 10 20 6 43
-9 43 -5 0 -9 -27 -9 -60z"/>
<path d="M1240 1490 l0 -60 60 0 60 0 0 60 c0 34 -4 60 -10 60 -6 0 -8 -15 -4
-40 8 -51 -12 -75 -56 -65 -28 6 -30 9 -30 56 0 27 -4 49 -10 49 -6 0 -10 -27
-10 -60z"/>
<path d="M1381 1490 l-1 -60 63 0 63 0 -4 38 -5 37 -15 -33 c-13 -26 -21 -32
-41 -29 -30 4 -54 43 -42 66 9 18 4 41 -9 41 -4 0 -8 -27 -9 -60z"/>
<path d="M1528 1490 l-3 -60 58 0 c45 0 57 3 57 16 0 8 -5 12 -11 9 -6 -4 -24
-8 -40 -9 -37 -3 -53 21 -47 70 2 19 1 34 -3 34 -4 0 -9 -27 -11 -60z"/>
<path d="M1664 1489 l2 -61 62 -1 62 -2 0 63 0 62 -64 0 -65 0 3 -61z m91 2
c0 -8 -8 -19 -17 -25 -22 -13 -44 5 -34 29 7 20 51 16 51 -4z"/>
<path d="M1943 1490 c0 -36 2 -50 4 -32 2 17 2 47 0 65 -2 17 -4 3 -4 -33z"/>
<path d="M2090 1488 l0 -63 65 0 65 0 0 63 0 62 -65 0 -65 0 0 -62z m80 17
c15 -18 6 -45 -15 -45 -18 0 -30 24 -21 45 7 19 20 19 36 0z"/>
<path d="M2653 1485 c0 -33 2 -45 4 -27 2 18 2 45 0 60 -2 15 -4 0 -4 -33z"/>
<path d="M2793 1485 c0 -33 2 -45 4 -27 2 18 2 45 0 60 -2 15 -4 0 -4 -33z"/>
<path d="M908 1473 c-3 -26 -7 -28 -46 -29 -69 -2 -61 -14 9 -14 l65 0 -4 35
c-5 42 -19 46 -24 8z"/>
<path d="M310 1420 l-65 -7 73 -1 c47 -1 71 2 67 8 -3 6 -7 9 -8 8 -1 -1 -31
-4 -67 -8z"/>
<path d="M1978 1413 c18 -2 45 -2 60 0 15 2 0 4 -33 4 -33 0 -45 -2 -27 -4z"/>
<path d="M2358 1413 c56 -2 148 -2 205 0 56 1 10 3 -103 3 -113 0 -159 -2
-102 -3z"/>
<path d="M2697 1413 c18 -2 50 -2 70 0 21 2 7 4 -32 4 -38 0 -55 -2 -38 -4z"/>
<path d="M2858 1413 c29 -2 74 -2 100 0 26 2 2 3 -53 3 -55 0 -76 -1 -47 -3z"/>
<path d="M528 1347 l4 -63 58 1 58 0 4 63 3 62 -65 0 -65 0 3 -63z m87 -2 c0
-14 -8 -21 -27 -23 -21 -3 -26 1 -23 15 2 10 4 22 4 26 1 5 11 7 24 5 14 -2
22 -10 22 -23z"/>
<path d="M779 1403 c0 -5 -1 -26 -2 -48 -2 -30 -7 -42 -25 -51 -23 -11 -23
-12 7 -16 l31 -5 0 64 c0 35 -2 63 -5 63 -3 0 -5 -3 -6 -7z"/>
<path d="M810 1350 c0 -55 2 -60 22 -60 17 0 19 3 10 12 -13 13 -16 67 -4 83
9 13 49 13 60 0 15 -16 23 -63 12 -70 -15 -9 -12 -25 5 -25 11 0 15 12 15 44
0 24 3 51 6 60 5 14 -4 16 -60 16 l-66 0 0 -60z"/>
<path d="M959 1406 c-2 -2 -2 -29 -1 -60 3 -48 7 -56 24 -56 18 0 18 1 3 16
-10 10 -15 29 -13 48 3 27 7 31 36 34 41 4 65 -18 56 -53 -3 -13 -10 -22 -15
-19 -5 3 -9 -2 -9 -10 0 -9 9 -16 20 -16 18 0 20 7 20 60 l0 60 -58 0 c-32 0
-61 -2 -63 -4z"/>
<path d="M1100 1350 l0 -60 38 1 c21 1 28 4 15 6 -32 6 -43 25 -34 59 5 22 14
30 35 32 15 2 33 -2 41 -8 13 -11 17 -82 3 -74 -4 2 -9 0 -12 -5 -3 -5 3 -11
14 -14 18 -5 20 0 20 59 l0 64 -60 0 -60 0 0 -60z"/>
<path d="M1240 1352 c0 -63 4 -74 26 -65 10 4 11 10 4 23 -6 10 -10 32 -10 49
0 28 3 31 33 31 17 0 38 -4 45 -9 13 -8 12 -54 -1 -67 -11 -11 -8 -21 8 -28
12 -4 15 6 15 59 l0 65 -60 0 -60 0 0 -58z"/>
<path d="M1380 1350 c0 -53 2 -60 20 -60 13 0 18 5 14 15 -4 8 -9 13 -13 10
-4 -2 -5 13 -2 33 5 31 11 37 34 40 16 2 35 -2 43 -9 16 -13 19 -55 4 -64 -16
-10 -12 -25 8 -25 14 0 17 10 17 60 l0 60 -62 0 -63 0 0 -60z"/>
<path d="M1525 1350 c0 -49 3 -60 17 -60 14 0 15 5 6 34 -6 19 -8 41 -5 50 6
16 42 21 71 10 19 -7 21 -54 4 -73 -10 -11 -10 -14 -1 -18 24 -9 26 -3 27 57
l1 60 -60 0 -60 0 0 -60z"/>
<path d="M1670 1352 c0 -56 2 -62 21 -62 19 0 19 1 4 16 -11 11 -15 30 -14 55
2 21 0 41 -4 45 -4 4 -7 -20 -7 -54z"/>
<path d="M1810 1347 l0 -63 61 1 61 1 1 62 2 62 -62 0 -63 0 0 -63z m83 11 c7
-21 -4 -38 -23 -38 -23 0 -34 16 -26 35 7 18 43 20 49 3z"/>
<path d="M2090 1347 l0 -63 65 0 65 0 0 63 0 63 -65 0 -65 0 0 -63z m88 4 c3
-21 -11 -40 -29 -41 -10 0 -18 40 -12 56 8 23 38 12 41 -15z"/>
<path d="M233 1345 c0 -33 2 -45 4 -27 2 18 2 45 0 60 -2 15 -4 0 -4 -33z"/>
<path d="M373 1345 c0 -33 2 -45 4 -27 2 18 2 45 0 60 -2 15 -4 0 -4 -33z"/>
<path d="M2933 1345 c0 -33 2 -45 4 -27 2 18 2 45 0 60 -2 15 -4 0 -4 -33z"/>
<path d="M138 1273 c18 -2 45 -2 60 0 15 2 0 4 -33 4 -33 0 -45 -2 -27 -4z"/>
<path d="M233 1215 c0 -38 2 -53 4 -32 2 20 2 52 0 70 -2 17 -4 1 -4 -38z"/>
<path d="M278 1273 c18 -2 45 -2 60 0 15 2 0 4 -33 4 -33 0 -45 -2 -27 -4z"/>
<path d="M1988 1273 c18 -2 45 -2 60 0 15 2 0 4 -33 4 -33 0 -45 -2 -27 -4z"/>
<path d="M2387 1273 c18 -2 50 -2 70 0 21 2 7 4 -32 4 -38 0 -55 -2 -38 -4z"/>
<path d="M2557 1273 c18 -2 50 -2 70 0 21 2 7 4 -32 4 -38 0 -55 -2 -38 -4z"/>
<path d="M2697 1273 c18 -2 50 -2 70 0 21 2 7 4 -32 4 -38 0 -55 -2 -38 -4z"/>
<path d="M2838 1273 c18 -2 45 -2 60 0 15 2 0 4 -33 4 -33 0 -45 -2 -27 -4z"/>
<path d="M530 1221 c0 -27 -3 -56 -6 -65 -5 -14 4 -16 62 -16 l69 0 -3 65 -4
65 -59 0 -59 0 0 -49z m84 -4 c14 -22 -5 -41 -33 -32 -22 7 -25 33 -6 47 13
10 26 5 39 -15z"/>
<path d="M756 1261 c-3 -5 1 -15 10 -22 12 -10 14 -23 10 -51 -4 -23 -2 -38 4
-38 6 0 10 26 10 60 0 46 -3 60 -14 60 -8 0 -17 -4 -20 -9z"/>
<path d="M814 1261 c-2 -2 -4 -28 -4 -58 0 -36 4 -53 13 -53 8 0 12 16 12 47
0 42 3 48 23 51 33 5 27 19 -9 18 -17 -1 -32 -3 -35 -5z"/>
<path d="M900 1257 c0 -8 3 -17 7 -21 4 -4 6 -23 4 -42 -1 -18 2 -34 7 -34 10
0 20 80 14 100 -5 15 -32 12 -32 -3z"/>
<path d="M962 1207 c1 -53 2 -56 5 -17 5 49 14 60 54 60 31 0 50 -33 42 -73
-3 -16 -1 -27 6 -27 7 0 11 22 11 59 l0 58 -60 1 -60 1 2 -62z"/>
<path d="M1105 1262 c-3 -3 -5 -32 -5 -65 0 -33 3 -57 7 -53 4 3 6 26 4 50 -2
40 1 45 26 53 l28 10 -27 5 c-15 3 -30 3 -33 0z"/>
<path d="M1175 1261 c-3 -2 3 -10 12 -16 11 -8 17 -27 17 -53 1 -22 4 -44 9
-48 4 -4 7 22 7 59 0 60 -2 66 -20 64 -12 -1 -23 -3 -25 -6z"/>
<path d="M1240 1203 c0 -50 3 -61 14 -57 11 4 13 12 7 27 -13 38 1 72 33 75
41 5 59 -15 53 -60 -3 -21 -1 -38 4 -38 5 0 9 26 9 58 l0 58 -60 0 -60 0 0
-63z"/>
<path d="M1380 1210 c0 -47 3 -60 15 -60 15 0 14 19 -1 68 -2 7 8 18 21 24 14
6 25 16 25 21 0 5 -6 4 -14 -2 -10 -8 -16 -9 -21 -1 -15 25 -25 6 -25 -50z"/>
<path d="M1470 1256 c0 -8 4 -17 9 -20 4 -3 7 -24 5 -46 -2 -22 1 -40 6 -40 6
0 10 27 10 60 0 47 -3 60 -15 60 -8 0 -15 -6 -15 -14z"/>
<path d="M1529 1265 c0 -3 -1 -31 -1 -62 -1 -61 11 -74 50 -58 15 6 14 8 -6
16 -12 5 -25 15 -28 24 -10 25 5 65 24 65 15 0 15 2 2 10 -16 10 -40 13 -41 5z"/>
<path d="M1610 1256 c0 -9 5 -16 10 -16 15 0 12 -41 -5 -73 -14 -27 -14 -28 7
-25 20 3 22 9 22 63 0 48 -4 61 -17 63 -10 2 -17 -3 -17 -12z"/>
<path d="M1670 1204 c0 -54 3 -64 18 -64 9 0 24 5 32 10 12 8 11 10 -7 10 -23
0 -28 11 -23 55 1 11 8 25 16 31 20 16 17 22 -11 22 -24 0 -25 -3 -25 -64z"/>
<path d="M1810 1205 l0 -65 60 0 60 0 0 65 0 65 -60 0 -60 0 0 -65z m87 9 c8
-21 -19 -46 -40 -38 -9 3 -17 17 -17 30 0 19 5 24 25 24 14 0 28 -7 32 -16z"/>
<path d="M2090 1205 l0 -65 65 0 65 0 0 65 0 65 -65 0 -65 0 0 -65z m74 29
c20 -8 21 -50 2 -57 -20 -8 -39 18 -31 43 7 22 7 22 29 14z"/>
<path d="M373 1205 c0 -33 2 -45 4 -27 2 18 2 45 0 60 -2 15 -4 0 -4 -33z"/>
<path d="M2653 1205 c0 -33 2 -45 4 -27 2 18 2 45 0 60 -2 15 -4 0 -4 -33z"/>
<path d="M2793 1205 c0 -33 2 -45 4 -27 2 18 2 45 0 60 -2 15 -4 0 -4 -33z"/>
<path d="M2933 1205 c0 -33 2 -45 4 -27 2 18 2 45 0 60 -2 15 -4 0 -4 -33z"/>
<path d="M137 1133 c18 -2 50 -2 70 0 21 2 7 4 -32 4 -38 0 -55 -2 -38 -4z"/>
<path d="M283 1133 c20 -2 54 -2 75 0 20 2 3 4 -38 4 -41 0 -58 -2 -37 -4z"/>
<path d="M1978 1133 c17 -2 47 -2 65 0 17 2 3 4 -33 4 -36 0 -50 -2 -32 -4z"/>
<path d="M2288 1133 c18 -2 45 -2 60 0 15 2 0 4 -33 4 -33 0 -45 -2 -27 -4z"/>
<path d="M2448 1133 c39 -2 105 -2 145 0 39 1 7 3 -73 3 -80 0 -112 -2 -72 -3z"/>
<path d="M2753 1133 c48 -2 125 -2 170 0 45 1 6 3 -88 3 -93 0 -130 -2 -82 -3z"/>
<path d="M670 1065 l0 -65 63 0 62 0 -1 62 -2 63 -61 3 -61 3 0 -66z m83 19
c24 -9 8 -44 -19 -44 -19 0 -24 5 -24 25 0 25 13 31 43 19z"/>
<path d="M810 1065 l0 -65 64 0 65 0 -3 63 -2 62 -62 3 -62 3 0 -66z m88 13
c27 -27 4 -52 -37 -41 -20 5 -28 32 -14 46 10 11 38 8 51 -5z"/>
<path d="M955 1065 l0 -65 63 0 62 0 0 65 0 65 -63 0 -63 0 1 -65z m90 0 c0
-13 -8 -21 -24 -23 -28 -4 -46 11 -37 33 9 25 61 16 61 -10z"/>
<path d="M1100 1065 l0 -65 60 0 60 0 0 65 0 65 -60 0 -60 0 0 -65z m80 4 c13
-23 12 -26 -10 -29 -31 -5 -40 1 -40 25 0 32 34 34 50 4z"/>
<path d="M1240 1064 l0 -64 60 0 60 0 0 64 0 65 -60 0 -60 -1 0 -64z m83 20
c9 -3 13 -13 10 -25 -4 -15 -13 -19 -32 -17 -24 3 -34 20 -24 41 5 8 26 9 46
1z"/>
<path d="M1380 1065 l0 -65 65 0 65 0 0 65 0 65 -65 0 -65 0 0 -65z m89 6 c8
-14 7 -22 -3 -30 -20 -17 -46 -2 -46 25 0 30 34 33 49 5z"/>
<path d="M1810 1063 l0 -63 63 0 62 0 -1 62 -2 62 -61 0 -61 1 0 -62z m84 18
c4 -5 3 -17 0 -26 -10 -24 -48 -15 -52 13 -3 18 1 22 22 22 14 0 27 -4 30 -9z"/>
<path d="M2090 1063 l0 -63 65 0 65 0 0 63 0 62 -65 0 -65 0 0 -62z m88 -7
c-2 -13 -10 -21 -23 -21 -23 0 -32 30 -14 51 16 19 41 -1 37 -30z"/>
<path d="M234 995 c0 -71 1 -99 3 -62 2 37 2 96 0 130 -2 34 -3 4 -3 -68z"/>
<path d="M1530 1111 c0 -5 17 -8 38 -7 45 3 64 -3 56 -16 -4 -6 -1 -9 7 -6 8
3 15 12 17 21 3 14 -6 17 -57 17 -34 0 -61 -4 -61 -9z"/>
<path d="M1670 1065 c0 -30 5 -55 10 -55 6 0 10 20 10 44 0 40 3 45 28 50 15
4 37 4 50 2 12 -3 22 -1 22 5 0 5 -27 9 -60 9 l-60 0 0 -55z"/>
<path d="M2653 1065 c0 -33 2 -45 4 -27 2 18 2 45 0 60 -2 15 -4 0 -4 -33z"/>
<path d="M2793 1065 c0 -33 2 -45 4 -27 2 18 2 45 0 60 -2 15 -4 0 -4 -33z"/>
<path d="M2933 1065 c0 -33 2 -45 4 -27 2 18 2 45 0 60 -2 15 -4 0 -4 -33z"/>
<path d="M1631 1056 c-2 -29 -30 -44 -68 -36 -25 6 -33 5 -33 -6 0 -10 15 -14
60 -14 63 0 65 2 50 50 -6 19 -8 20 -9 6z"/>
<path d="M138 993 c18 -2 45 -2 60 0 15 2 0 4 -33 4 -33 0 -45 -2 -27 -4z"/>
<path d="M278 993 c18 -2 45 -2 60 0 15 2 0 4 -33 4 -33 0 -45 -2 -27 -4z"/>
<path d="M1964 992 c5 -8 96 -5 105 3 2 3 -21 5 -53 5 -31 0 -55 -4 -52 -8z"/>
<path d="M2838 993 c18 -2 45 -2 60 0 15 2 0 4 -33 4 -33 0 -45 -2 -27 -4z"/>
<path d="M810 920 l0 -60 65 0 65 0 0 60 0 60 -65 0 -65 0 0 -60z m85 5 c0
-31 -41 -33 -47 -2 -4 20 -1 24 21 23 19 -1 26 -6 26 -21z"/>
<path d="M1050 954 c0 -14 4 -23 9 -19 6 3 7 -6 2 -22 -9 -31 -4 -53 10 -53 5
0 9 27 9 60 0 47 -3 60 -15 60 -9 0 -15 -10 -15 -26z"/>
<path d="M1100 920 c0 -45 3 -58 13 -54 10 3 12 18 7 54 -3 27 -3 47 2 44 4
-3 8 0 8 5 0 6 -7 11 -15 11 -12 0 -15 -13 -15 -60z"/>
<path d="M1192 956 c1 -14 6 -22 10 -20 12 8 9 -31 -3 -43 -12 -12 -4 -33 12
-33 5 0 9 27 9 60 0 46 -3 60 -15 60 -10 0 -14 -9 -13 -24z"/>
<path d="M1240 921 c0 -44 3 -59 13 -56 15 6 14 108 -2 113 -7 2 -11 -17 -11
-57z"/>
<path d="M1335 970 c-3 -5 -2 -10 2 -10 13 0 15 -60 3 -75 -8 -9 -6 -14 5 -19
12 -4 15 5 15 54 0 55 -10 75 -25 50z"/>
<path d="M1380 943 c0 -35 1 -36 15 -17 17 23 19 38 3 28 -8 -5 -9 -2 -5 9 3
10 2 17 -3 17 -6 0 -10 -17 -10 -37z"/>
<path d="M1484 926 c1 -30 4 -58 9 -62 4 -4 7 20 7 54 0 34 -4 62 -8 62 -5 0
-8 -24 -8 -54z"/>
<path d="M1528 921 c3 -48 7 -59 19 -54 10 4 11 9 4 16 -33 33 4 87 56 81 18
-2 35 1 38 6 4 6 -18 10 -57 10 l-63 0 3 -59z"/>
<path d="M1665 920 l-1 -60 63 0 63 0 0 60 0 60 -62 0 -63 0 0 -60z m83 2 c3
-20 0 -23 -20 -20 -15 2 -24 11 -26 26 -3 20 0 23 20 20 15 -2 24 -11 26 -26z"/>
<path d="M2090 920 l0 -60 65 0 65 0 0 60 0 60 -65 0 -65 0 0 -60z m88 6 c5
-24 -10 -38 -31 -30 -17 6 -23 35 -10 48 12 12 38 1 41 -18z"/>
<path d="M1940 926 c-7 -68 8 -86 71 -86 27 0 49 4 49 9 0 5 -6 9 -12 8 -7 0
-32 1 -55 1 l-42 2 -3 58 -3 57 -5 -49z"/>
<path d="M2793 905 c0 -38 2 -53 4 -32 2 20 2 52 0 70 -2 17 -4 1 -4 -38z"/>
<path d="M1820 850 c0 -5 23 -10 50 -10 28 0 50 5 50 10 0 6 -22 10 -50 10
-27 0 -50 -4 -50 -10z"/>
<path d="M950 780 l0 -60 65 0 65 0 0 60 0 60 -65 0 -65 0 0 -60z m98 -4 c-4
-30 -52 -30 -56 1 -2 14 3 23 15 25 29 7 44 -3 41 -26z"/>
<path d="M1100 781 l0 -59 60 -4 60 -3 0 63 0 62 -60 0 -60 0 0 -59z m84 6 c8
-13 8 -20 -3 -26 -20 -13 -51 -1 -51 18 0 36 34 41 54 8z"/>
<path d="M1240 778 l0 -63 60 1 c33 1 60 5 60 8 0 3 0 31 0 61 l0 55 -60 0
-60 0 0 -62z m88 8 c5 -24 -17 -37 -40 -25 -21 11 -24 35 -5 42 22 10 42 2 45
-17z"/>
<path d="M1380 782 c0 -32 2 -61 4 -63 2 -2 32 -2 65 -1 l61 4 0 59 0 59 -65
0 -65 0 0 -58z m98 14 c6 -7 -10 -35 -23 -40 -21 -8 -49 18 -42 39 6 13 14 16
35 10 15 -4 28 -8 30 -9z"/>
<path d="M1525 780 l0 -60 62 0 63 0 0 60 0 60 -63 0 -62 0 0 -60z m83 4 c2
-13 -4 -24 -13 -28 -24 -9 -35 1 -35 30 0 21 4 25 23 22 13 -2 23 -11 25 -24z"/>
<path d="M2090 780 l0 -60 65 0 65 0 0 60 0 60 -65 0 -65 0 0 -60z m90 1 c0
-26 -21 -43 -37 -30 -16 14 -17 41 -1 57 14 14 38 -2 38 -27z"/>
<path d="M233 775 c0 -33 2 -45 4 -27 2 18 2 45 0 60 -2 15 -4 0 -4 -33z"/>
<path d="M800 700 l0 -129 -62 -4 -63 -3 68 -2 67 -2 0 135 c0 74 -2 135 -5
135 -3 0 -5 -58 -5 -130z"/>
<path d="M1790 782 c0 -29 4 -52 9 -52 9 0 4 90 -5 99 -2 2 -4 -19 -4 -47z"/>
<path d="M1710 710 l-45 -7 58 -1 c37 -1 56 2 52 8 -3 6 -9 9 -13 8 -4 0 -27
-4 -52 -8z"/>
<path d="M1860 710 l-55 -7 58 -1 c32 -1 57 2 57 8 0 6 -1 9 -2 8 -2 -1 -28
-4 -58 -8z"/>
<path d="M1954 708 c-3 -4 23 -8 57 -8 34 0 59 3 56 7 -10 9 -108 10 -113 1z"/>
<path d="M233 645 c0 -38 2 -53 4 -32 2 20 2 52 0 70 -2 17 -4 1 -4 -38z"/>
<path d="M568 703 c18 -2 45 -2 60 0 15 2 0 4 -33 4 -33 0 -45 -2 -27 -4z"/>
<path d="M950 638 l0 -63 65 0 65 0 0 63 0 62 -65 0 -65 0 0 -62z m85 21 c4
-5 4 -21 1 -35 -6 -21 -9 -22 -26 -12 -31 20 -24 53 12 57 4 1 10 -4 13 -10z"/>
<path d="M2090 638 l0 -63 65 0 65 0 0 63 0 62 -65 0 -65 0 0 -62z m85 2 c0
-16 -6 -26 -18 -28 -19 -4 -32 20 -23 44 9 25 41 13 41 -16z"/>
<path d="M1513 635 c0 -33 2 -45 4 -27 2 18 2 45 0 60 -2 15 -4 0 -4 -33z"/>
<path d="M1653 635 c0 -33 2 -45 4 -27 2 18 2 45 0 60 -2 15 -4 0 -4 -33z"/>
<path d="M1790 635 c0 -30 3 -55 8 -55 4 0 7 25 7 55 0 30 -3 55 -7 55 -5 0
-8 -25 -8 -55z"/>
<path d="M1938 639 c-1 -28 0 -53 5 -56 4 -2 7 21 7 51 0 70 -7 73 -12 5z"/>
<path d="M2653 635 c0 -33 2 -45 4 -27 2 18 2 45 0 60 -2 15 -4 0 -4 -33z"/>
<path d="M2793 635 c0 -33 2 -45 4 -27 2 18 2 45 0 60 -2 15 -4 0 -4 -33z"/>
<path d="M2933 635 c0 -33 2 -45 4 -27 2 18 2 45 0 60 -2 15 -4 0 -4 -33z"/>
<path d="M137 563 c18 -2 50 -2 70 0 21 2 7 4 -32 4 -38 0 -55 -2 -38 -4z"/>
<path d="M283 563 c20 -2 54 -2 75 0 20 2 3 4 -38 4 -41 0 -58 -2 -37 -4z"/>
<path d="M427 563 c18 -2 50 -2 70 0 21 2 7 4 -32 4 -38 0 -55 -2 -38 -4z"/>
<path d="M567 563 c18 -2 50 -2 70 0 21 2 7 4 -32 4 -38 0 -55 -2 -38 -4z"/>
<path d="M1128 563 c17 -2 47 -2 65 0 17 2 3 4 -33 4 -36 0 -50 -2 -32 -4z"/>
<path d="M1268 563 c17 -2 47 -2 65 0 17 2 3 4 -33 4 -36 0 -50 -2 -32 -4z"/>
<path d="M1374 556 c-3 -7 -3 -38 -1 -67 l3 -54 2 62 2 62 63 4 62 3 -63 2
c-45 1 -64 -2 -68 -12z"/>
<path d="M1548 563 c17 -2 47 -2 65 0 17 2 3 4 -33 4 -36 0 -50 -2 -32 -4z"/>
<path d="M1654 556 c-3 -7 -3 -38 -1 -67 l3 -54 2 62 2 62 68 4 67 3 -68 2
c-49 1 -69 -2 -73 -12z"/>
<path d="M1838 563 c17 -2 47 -2 65 0 17 2 3 4 -33 4 -36 0 -50 -2 -32 -4z"/>
<path d="M1978 563 c17 -2 47 -2 65 0 17 2 3 4 -33 4 -36 0 -50 -2 -32 -4z"/>
<path d="M2443 563 c103 -2 271 -2 375 0 103 1 18 2 -188 2 -206 0 -291 -1
-187 -2z"/>
<path d="M950 496 l0 -65 65 0 65 0 0 65 0 64 -65 0 -65 0 0 -64z m84 18 c4
-9 4 -25 1 -35 -5 -15 -10 -17 -26 -9 -22 12 -25 30 -7 48 16 16 25 15 32 -4z"/>
<path d="M2090 496 l0 -63 65 0 65 0 0 63 0 64 -65 0 -65 0 0 -64z m90 -8 c0
-13 -8 -18 -25 -18 -28 0 -32 18 -14 52 11 21 12 21 25 3 8 -10 14 -27 14 -37z"/>
<path d="M233 495 c0 -33 2 -45 4 -27 2 18 2 45 0 60 -2 15 -4 0 -4 -33z"/>
<path d="M373 495 c0 -33 2 -45 4 -27 2 18 2 45 0 60 -2 15 -4 0 -4 -33z"/>
<path d="M800 420 l0 -129 -62 -4 -63 -3 62 -2 62 -2 4 -132 c1 -73 4 -13 5
135 1 147 0 267 -3 267 -3 0 -5 -58 -5 -130z"/>
<path d="M1513 495 c0 -33 2 -45 4 -27 2 18 2 45 0 60 -2 15 -4 0 -4 -33z"/>
<path d="M1790 498 c0 -28 3 -49 6 -45 9 9 11 97 2 97 -4 0 -8 -23 -8 -52z"/>
<path d="M1938 543 c-2 -5 -1 -30 3 -58 l6 -50 1 58 c2 52 -2 69 -10 50z"/>
<path d="M2933 495 c0 -33 2 -45 4 -27 2 18 2 45 0 60 -2 15 -4 0 -4 -33z"/>
<path d="M138 423 c18 -2 45 -2 60 0 15 2 0 4 -33 4 -33 0 -45 -2 -27 -4z"/>
<path d="M233 365 c0 -38 2 -53 4 -32 2 20 2 52 0 70 -2 17 -4 1 -4 -38z"/>
<path d="M277 423 c18 -2 50 -2 70 0 21 2 7 4 -32 4 -38 0 -55 -2 -38 -4z"/>
<path d="M428 423 c18 -2 45 -2 60 0 15 2 0 4 -33 4 -33 0 -45 -2 -27 -4z"/>
<path d="M603 423 c37 -2 96 -2 130 0 34 2 4 3 -68 3 -71 0 -99 -1 -62 -3z"/>
<path d="M2387 423 c18 -2 50 -2 70 0 21 2 7 4 -32 4 -38 0 -55 -2 -38 -4z"/>
<path d="M2697 423 c18 -2 50 -2 70 0 21 2 7 4 -32 4 -38 0 -55 -2 -38 -4z"/>
<path d="M2838 423 c18 -2 45 -2 60 0 15 2 0 4 -33 4 -33 0 -45 -2 -27 -4z"/>
<path d="M950 355 l0 -65 65 0 65 0 0 65 0 65 -65 0 -65 0 0 -65z m84 20 c22
-17 15 -45 -13 -45 -20 0 -37 32 -26 50 8 13 16 12 39 -5z"/>
<path d="M1100 355 l0 -65 60 0 60 0 0 65 0 65 -60 0 -60 0 0 -65z m79 16 c21
-14 5 -43 -21 -39 -29 4 -39 48 -11 48 10 0 24 -4 32 -9z"/>
<path d="M1240 355 l0 -65 63 0 62 0 -3 65 -4 65 -59 0 -59 0 0 -65z m85 0 c0
-22 -22 -30 -44 -16 -21 14 -5 43 21 39 15 -2 23 -10 23 -23z"/>
<path d="M1380 355 l0 -65 65 0 65 0 0 65 0 65 -65 0 -65 0 0 -65z m92 -2 c-3
-16 -11 -23 -27 -23 -28 0 -40 26 -17 39 29 16 49 9 44 -16z"/>
<path d="M1523 355 l1 -65 63 0 63 0 0 65 0 65 -64 0 -63 0 0 -65z m80 19 c23
-9 9 -44 -18 -44 -24 0 -35 16 -27 38 4 13 21 15 45 6z"/>
<path d="M1665 355 l0 -65 63 0 62 0 0 65 0 65 -62 0 -63 0 0 -65z m84 16 c19
-12 6 -41 -17 -41 -27 0 -45 23 -30 38 14 14 28 15 47 3z"/>
<path d="M1810 355 l0 -65 60 0 60 0 0 65 0 65 -60 0 -60 0 0 -65z m85 0 c0
-14 -8 -21 -27 -23 -22 -3 -28 1 -28 16 0 25 10 33 35 30 12 -2 20 -10 20 -23z"/>
<path d="M1950 355 l0 -65 63 0 62 0 0 65 0 65 -62 0 -63 0 0 -65z m87 14 c17
-17 4 -39 -22 -39 -28 0 -38 12 -29 34 7 19 35 21 51 5z"/>
<path d="M2090 355 l0 -65 65 0 65 0 0 65 0 65 -65 0 -65 0 0 -65z m90 -2 c0
-21 -4 -24 -27 -21 -32 4 -39 20 -18 41 21 21 45 11 45 -20z"/>
<path d="M373 355 c0 -33 2 -45 4 -27 2 18 2 45 0 60 -2 15 -4 0 -4 -33z"/>
<path d="M2793 355 c0 -33 2 -45 4 -27 2 18 2 45 0 60 -2 15 -4 0 -4 -33z"/>
<path d="M2933 355 c0 -33 2 -45 4 -27 2 18 2 45 0 60 -2 15 -4 0 -4 -33z"/>
<path d="M137 283 c18 -2 50 -2 70 0 21 2 7 4 -32 4 -38 0 -55 -2 -38 -4z"/>
<path d="M278 283 c18 -2 45 -2 60 0 15 2 0 4 -33 4 -33 0 -45 -2 -27 -4z"/>
<path d="M427 283 c18 -2 50 -2 70 0 21 2 7 4 -32 4 -38 0 -55 -2 -38 -4z"/>
<path d="M567 283 c18 -2 50 -2 70 0 21 2 7 4 -32 4 -38 0 -55 -2 -38 -4z"/>
<path d="M2353 283 c59 -2 154 -2 210 0 56 1 8 3 -108 3 -115 0 -161 -2 -102
-3z"/>
<path d="M2753 283 c48 -2 125 -2 170 0 45 1 6 3 -88 3 -93 0 -130 -2 -82 -3z"/>
<path d="M234 135 c0 -77 2 -107 3 -67 2 40 2 103 0 140 -2 37 -3 4 -3 -73z"/>
<path d="M943 215 c0 -33 2 -45 4 -27 2 18 2 45 0 60 -2 15 -4 0 -4 -33z"/>
<path d="M2653 215 c0 -33 2 -45 4 -27 2 18 2 45 0 60 -2 15 -4 0 -4 -33z"/>
<path d="M2793 215 c0 -33 2 -45 4 -27 2 18 2 45 0 60 -2 15 -4 0 -4 -33z"/>
<path d="M2933 215 c0 -33 2 -45 4 -27 2 18 2 45 0 60 -2 15 -4 0 -4 -33z"/>
<path d="M428 143 c18 -2 45 -2 60 0 15 2 0 4 -33 4 -33 0 -45 -2 -27 -4z"/>
<path d="M848 143 c18 -2 45 -2 60 0 15 2 0 4 -33 4 -33 0 -45 -2 -27 -4z"/>
<path d="M988 143 c18 -2 45 -2 60 0 15 2 0 4 -33 4 -33 0 -45 -2 -27 -4z"/>
<path d="M1653 85 c0 -38 2 -53 4 -32 2 20 2 52 0 70 -2 17 -4 1 -4 -38z"/>
<path d="M2223 75 c0 -44 2 -61 4 -37 2 23 2 59 0 80 -2 20 -4 1 -4 -43z"/>
<path d="M2268 143 c18 -2 45 -2 60 0 15 2 0 4 -33 4 -33 0 -45 -2 -27 -4z"/>
</g>
</svg>
